<?xml version="1.0" encoding="utf-8"?>
<!-- Generator: Adobe Illustrator 22.1.0, SVG Export Plug-In . SVG Version: 6.00 Build 0)  -->
<svg version="1.1" id="Layer_1" xmlns="http://www.w3.org/2000/svg" xmlns:xlink="http://www.w3.org/1999/xlink" x="0px" y="0px"
	 viewBox="0 0 685.7 349.9" style="enable-background:new 0 0 685.7 349.9;" xml:space="preserve">
<style type="text/css">
	.st0{fill:#FFFFFF;}
</style>
<path class="st0" d="M335.1,172.3h-7.7v-17.5h7c8.5,0,12.7,2.9,12.7,8.8C347,169.4,343,172.3,335.1,172.3 M356.6,143.5
	c-4.5-3.7-12.2-5.6-23-5.6H309v74.9h18.3v-23.5h8.2c10,0,17.3-2.2,21.9-6.5c5.2-4.9,7.9-11.3,7.9-19.4
	C365.3,155,362.4,148.3,356.6,143.5 M396.7,137.9h-19.1v74.9h41.2v-17h-22.1V137.9z M456,186.7l7.9-25.6l7.7,25.6H456z M456.2,137.9
	l-30,74.9h20.6l3.9-10.9h26.1l3.6,10.9h20.8l-29.8-74.9H456.2z M510.7,212.8h19.1v-74.9h-19.1V212.8z M573.4,195.8h-8.2v-41h8.3
	c5.8,0,10.3,1.8,13.5,5.4c3.1,3.6,4.7,8.7,4.7,15.4C591.7,189.1,585.6,195.8,573.4,195.8 M603.9,151.9c-2.5-3.6-5.6-6.5-9.1-8.7
	c-5.8-3.6-13.6-5.4-23.6-5.4h-25.2v74.9h29.4c10.6,0,19.2-3.4,25.6-10.3s9.7-16,9.7-27.4C610.8,166,608.5,158.3,603.9,151.9
	 M259,259l16-62.4l-21.6-21.6l21.6-21.7l-16-62.4l-62.4-16l-21.6,21.7l-21.7-21.6l-62.4,16l-16,62.4l21.7,21.6l-21.7,21.7l16,62.4
	l62.4,16l21.7-21.7l21.6,21.6L259,259z M187.3,240.9l20.6-20.6l26.2,26.2l-32.8,8.4L187.3,240.9z M154.3,141.9l20.6-20.6l20.6,20.6
	l-20.6,20.6L154.3,141.9z M162.6,174.9l-20.6,20.6l-20.6-20.6l20.6-20.6L162.6,174.9z M207.9,154.3l20.6,20.6l-20.6,20.6l-20.6-20.6
	L207.9,154.3z M195.6,207.9l-20.6,20.6l-20.6-20.6l20.6-20.6L195.6,207.9z M148.5,254.9l-32.8-8.4l26.2-26.2l20.6,20.6L148.5,254.9z
	 M109,187.3l20.6,20.6l-26.2,26.2l-8.4-32.8L109,187.3z M103.3,115.7l26.2,26.2L109,162.6l-14-14L103.3,115.7z M162.6,109
	l-20.6,20.6l-26.2-26.2l32.8-8.4L162.6,109z M201.3,94.9l32.8,8.4l-26.2,26.2L187.3,109L201.3,94.9z M240.9,162.6l-20.6-20.6
	l26.2-26.2l8.4,32.8L240.9,162.6z M246.5,234.2l-26.2-26.2l20.6-20.6l14,14L246.5,234.2z"/>
</svg>
